<?xml version="1.0" encoding="utf-8"?>
<!-- Generator: Adobe Illustrator 16.0.4, SVG Export Plug-In . SVG Version: 6.00 Build 0)  -->
<!DOCTYPE svg PUBLIC "-//W3C//DTD SVG 1.1//EN" "http://www.w3.org/Graphics/SVG/1.1/DTD/svg11.dtd">
<svg version="1.1" id="Layer_1" xmlns="http://www.w3.org/2000/svg" xmlns:xlink="http://www.w3.org/1999/xlink" x="0px" y="0px"
	 width="20px" height="20px" viewBox="0 0 20 20" enable-background="new 0 0 20 20" xml:space="preserve">
<g>
	<path d="M19,17.875C19,18.49,18.49,19,17.875,19h-4.5v-6.996h2.25l0.378-2.593h-2.628V7.372c0-0.738,0.378-1.16,1.125-1.16h1.688
		V3.874c0,0-0.756-0.123-1.846-0.123c-2.47,0-3.718,1.371-3.718,3.419v2.241h-2.25v2.593h2.25V19H2.125C1.51,19,1,18.49,1,17.875
		V2.125C1,1.51,1.51,1,2.125,1h15.75C18.49,1,19,1.51,19,2.125V17.875z"/>
</g>
</svg>
