<?xml version="1.0" encoding="utf-8"?>
<!-- Generator: Adobe Illustrator 16.0.4, SVG Export Plug-In . SVG Version: 6.00 Build 0)  -->
<!DOCTYPE svg PUBLIC "-//W3C//DTD SVG 1.1//EN" "http://www.w3.org/Graphics/SVG/1.1/DTD/svg11.dtd">
<svg version="1.1" id="Layer_1" xmlns="http://www.w3.org/2000/svg" xmlns:xlink="http://www.w3.org/1999/xlink" x="0px" y="0px"
	 width="20px" height="20px" viewBox="0 0 20 20" enable-background="new 0 0 20 20" xml:space="preserve">
<g>
	<path d="M-6.75,19.67c-3.606,0-5.213-1.605-5.213-4.809V8.849h-2.808V6.041c2.404-0.798,4.01-2.001,4.414-5.608h2.799v4.81h4.415
		v3.606h-4.415v4.809c0,2.002,0.404,2.809,2.404,2.809c1.203,0,2.809-0.807,2.809-0.807v2.967C-2.345,18.627-3.95,19.67-6.75,19.67z
		"/>
</g>
<g>
	<path d="M2.921,5.145c-1.369,0-2.275-0.943-2.275-2.13c0-1.197,0.925-2.122,2.339-2.122c1.396,0,2.285,0.925,2.304,2.122
		c0,1.188-0.907,2.13-2.34,2.13H2.921z M4.898,7.076v11.995H1.035V7.076H4.898z M11.09,12.108c0-1.551,0.989-2.321,2.149-2.321
		s2.104,0.771,2.104,2.711v6.573h3.872v-6.963c0-3.482-1.932-5.414-4.644-5.414c-1.55,0-2.711,0.88-3.481,2.041l-0.127-1.659H7.155
		c0,0.408,0.063,2.711,0.063,2.711v9.284h3.871V12.108z"/>
</g>
</svg>
