<?xml version="1.0" encoding="utf-8"?>
<!-- Generator: Adobe Illustrator 16.0.4, SVG Export Plug-In . SVG Version: 6.00 Build 0)  -->
<!DOCTYPE svg PUBLIC "-//W3C//DTD SVG 1.1//EN" "http://www.w3.org/Graphics/SVG/1.1/DTD/svg11.dtd">
<svg version="1.1" id="Layer_1" xmlns="http://www.w3.org/2000/svg" xmlns:xlink="http://www.w3.org/1999/xlink" x="0px" y="0px"
	 width="20px" height="20px" viewBox="0 0 20 20" enable-background="new 0 0 20 20" xml:space="preserve">
<g>
	<path d="M11.613,19.67c-3.606,0-5.213-1.605-5.213-4.809V8.849H3.593V6.041c2.404-0.798,4.01-2.001,4.414-5.608h2.799v4.81h4.415
		v3.606h-4.415v4.809c0,2.002,0.404,2.809,2.404,2.809c1.203,0,2.809-0.807,2.809-0.807v2.967
		C16.019,18.627,14.413,19.67,11.613,19.67z"/>
</g>
<g>
	<path d="M24.947,4.894c-1.439,0-2.394-0.992-2.394-2.241c0-1.259,0.973-2.232,2.461-2.232c1.469,0,2.403,0.973,2.423,2.232
		c0,1.25-0.954,2.241-2.461,2.241H24.947z M27.027,6.925v12.618h-4.063V6.925H27.027z M33.541,12.219
		c0-1.631,1.04-2.442,2.261-2.442s2.213,0.811,2.213,2.852v6.914h4.072v-7.324c0-3.663-2.031-5.694-4.884-5.694
		c-1.631,0-2.852,0.925-3.662,2.146l-0.134-1.745h-4.006c0,0.429,0.067,2.852,0.067,2.852v9.766h4.072V12.219z"/>
</g>
</svg>
