<?xml version="1.0" encoding="utf-8"?>
<!-- Generator: Adobe Illustrator 16.0.4, SVG Export Plug-In . SVG Version: 6.00 Build 0)  -->
<!DOCTYPE svg PUBLIC "-//W3C//DTD SVG 1.1//EN" "http://www.w3.org/Graphics/SVG/1.1/DTD/svg11.dtd">
<svg version="1.1" id="Layer_1" xmlns="http://www.w3.org/2000/svg" xmlns:xlink="http://www.w3.org/1999/xlink" x="0px" y="0px"
	 width="20px" height="20px" viewBox="0 0 20 20" enable-background="new 0 0 20 20" xml:space="preserve">
<g>
	<path d="M19-4.625C19-4.01,18.49-3.5,17.875-3.5h-4.5v-6.996h2.25l0.378-2.593h-2.628v-2.039c0-0.738,0.378-1.16,1.125-1.16h1.688
		v-2.338c0,0-0.756-0.123-1.846-0.123c-2.47,0-3.718,1.371-3.718,3.419v2.241h-2.25v2.593h2.25V-3.5H2.125C1.51-3.5,1-4.01,1-4.625
		v-15.75C1-20.99,1.51-21.5,2.125-21.5h15.75C18.49-21.5,19-20.99,19-20.375V-4.625z"/>
</g>
<g>
	<path d="M-6.472,6.142c0,0.167,0,0.316,0,0.483c0,4.878-3.709,10.503-10.494,10.503c-2.083,0-4.043-0.457-5.669-1.503
		c0.29,0.044,0.58,0.062,0.879,0.062c1.723,0,3.331-0.747,4.579-1.749c-1.6-0.018-2.979-1.107-3.437-2.566
		c0.229,0.044,0.457,0.07,0.686,0.07c0.334,0,0.668-0.044,0.984-0.132c-1.688-0.334-2.962-1.828-2.962-3.621
		c0-0.018,0-0.018,0-0.044c0.501,0.272,1.063,0.439,1.67,0.457c-1.002-0.668-1.652-1.793-1.652-3.059
		c0-0.686,0.193-1.248,0.501-1.793c1.837,2.232,4.544,3.621,7.603,3.788c-0.062-0.264-0.079-0.562-0.079-0.853
		c0-2.039,1.644-3.683,3.683-3.683c1.063,0,2.021,0.457,2.716,1.16c0.826-0.167,1.626-0.475,2.329-0.896
		c-0.272,0.861-0.853,1.591-1.626,2.048c0.756-0.088,1.459-0.29,2.127-0.589C-5.136,4.981-5.76,5.623-6.472,6.142z"/>
</g>
<g>
	<path d="M39.64,3.378v12.744c0,1.45-1.178,2.628-2.628,2.628H24.268c-1.45,0-2.628-1.178-2.628-2.628V3.378
		c0-1.45,1.178-2.628,2.628-2.628h12.744C38.462,0.75,39.64,1.928,39.64,3.378z M37.768,8.625h-1.995
		c0.079,0.36,0.114,0.738,0.114,1.125c0,2.9-2.347,5.247-5.247,5.247s-5.247-2.347-5.247-5.247c0-0.387,0.035-0.765,0.114-1.125
		h-1.995V16.5c0,0.211,0.167,0.378,0.378,0.378h13.5c0.211,0,0.378-0.167,0.378-0.378V8.625z M27.265,9.75
		c0,1.863,1.512,3.375,3.375,3.375s3.375-1.512,3.375-3.375s-1.512-3.375-3.375-3.375S27.265,7.887,27.265,9.75z M37.768,3
		c0-0.211-0.167-0.378-0.378-0.378h-2.25c-0.211,0-0.378,0.167-0.378,0.378v2.25c0,0.211,0.167,0.378,0.378,0.378h2.25
		c0.211,0,0.378-0.167,0.378-0.378V3z"/>
</g>
<g>
	<path d="M18.998,2.127v12.372c0,0.625-0.5,1.125-1.125,1.125h-5.624v1.083l3.146,1.583c0.146,0.042,0.229,0.188,0.229,0.333
		c0,0.208-0.166,0.375-0.375,0.375H4.751c-0.167,0-0.333-0.125-0.375-0.292c-0.021-0.166,0.042-0.333,0.208-0.416l3.166-1.583
		v-1.083H2.126c-0.625,0-1.125-0.5-1.125-1.125V2.127c0-0.625,0.5-1.125,1.125-1.125h15.747C18.498,1.002,18.998,1.502,18.998,2.127
		z M16.748,3.252H3.251v10.122h13.497V3.252z"/>
</g>
</svg>
